#!/bin/bash
# flac2wav
#   ffmpeg converts all .flac files (in the specified directory) to .wav files
#
#   Prerequisite:
#     $ sudo apt  install ffmpeg
#
# Reference:
#   Bash script to convert all *flac to *.mp3 with FFmpeg?
#     https://unix.stackexchange.com/questions/114908/bash-script-to-convert-all-flac-to-mp3-with-ffmpeg
#   How to use FFMpeg to do Simple Audio Conversion
#     https://www.howtoforge.com/tutorial/ffmpeg-audio-conversion/
# Usage
#   $ ./flac2wav please-
# Detailed Usage
#   $ ls
#   flac2wav  please-  would_you_like-
#   $ ls
#   $ ./flac2wav please-
#   $
#   $ ls please-/*.wav
#   please-/please_say_hello.wav
#   ...
#   please-/please_say_hi.wav
#   $

# If the directory is specified, DIR_INPUT is $1; otherwise, the current directory ".".
#DIR_INPUT='please-'
DIR_INPUT=${1: -.}
cd ${DIR_INPUT}

# Convert all .flac files to .wav
for file_name in *.flac; do
  cmd="ffmpeg -i $file_name $(basename ${file_name/.flac}).wav"
  echo $cmd
  eval $cmd
done

#$ ffmpeg -i 103-1240-0000.flac 103-1240-0000.wav
#ffmpeg version 3.4.6-0ubuntu0.18.04.1 Copyright (c) 2000-2019 the FFmpeg developers
#  built with gcc 7 (Ubuntu 7.3.0-16ubuntu3)
#  configuration: --prefix=/usr --extra-version=0ubuntu0.18.04.1 --toolchain=hardened --libdir=/usr/lib/x86_64-linux-gnu --incdir=/usr/include/x86_64-linux-gnu --enable-gpl --disable-stripping --enable-avresample --enable-avisynth --enable-gnutls --enable-ladspa --enable-libass --enable-libbluray --enable-libbs2b --enable-libcaca --enable-libcdio --enable-libflite --enable-libfontconfig --enable-libfreetype --enable-libfribidi --enable-libgme --enable-libgsm --enable-libmp3lame --enable-libmysofa --enable-libopenjpeg --enable-libopenmpt --enable-libopus --enable-libpulse --enable-librubberband --enable-librsvg --enable-libshine --enable-libsnappy --enable-libsoxr --enable-libspeex --enable-libssh --enable-libtheora --enable-libtwolame --enable-libvorbis --enable-libvpx --enable-libwavpack --enable-libwebp --enable-libx265 --enable-libxml2 --enable-libxvid --enable-libzmq --enable-libzvbi --enable-omx --enable-openal --enable-opengl --enable-sdl2 --enable-libdc1394 --enable-libdrm --enable-libiec61883 --enable-chromaprint --enable-frei0r --enable-libopencv --enable-libx264 --enable-shared
#  libavutil      55. 78.100 / 55. 78.100
#  libavcodec     57.107.100 / 57.107.100
#  libavformat    57. 83.100 / 57. 83.100
#  libavdevice    57. 10.100 / 57. 10.100
#  libavfilter     6.107.100 /  6.107.100
#  libavresample   3.  7.  0 /  3.  7.  0
#  libswscale      4.  8.100 /  4.  8.100
#  libswresample   2.  9.100 /  2.  9.100
#  libpostproc    54.  7.100 / 54.  7.100
#Input #0, flac, from '103-1240-0000.flac':
#  Duration: 00:00:14.09, start: 0.000000, bitrate: 145 kb/s
#    Stream #0:0: Audio: flac, 16000 Hz, mono, s16
#Stream mapping:
#  Stream #0:0 -> #0:0 (flac (native) -> pcm_s16le (native))
#Press [q] to stop, [?] for help
#Output #0, wav, to '103-1240-0000.wav':
#  Metadata:
#    ISFT            : Lavf57.83.100
#    Stream #0:0: Audio: pcm_s16le ([1][0][0][0] / 0x0001), 16000 Hz, mono, s16, 256 kb/s
#    Metadata:
#      encoder         : Lavc57.107.100 pcm_s16le
#size=     440kB time=00:00:14.08 bitrate= 256.0kbits/s speed=1.53e+03x    
#video:0kB audio:440kB subtitle:0kB other streams:0kB global headers:0kB muxing overhead: 0.017306%
#$
